<svg xmlns="http://www.w3.org/2000/svg" xmlns:xlink="http://www.w3.org/1999/xlink" width="512" zoomAndPan="magnify" viewBox="0 0 384 383.999986" height="512" preserveAspectRatio="xMidYMid meet" version="1.0"><defs><clipPath id="83b5bbc8da"><path d="M 69.855469 145.695312 L 234.660156 145.695312 L 234.660156 280.710938 L 69.855469 280.710938 Z M 69.855469 145.695312 " clip-rule="nonzero"/></clipPath><clipPath id="d990deaca5"><path d="M 239 103.253906 L 313 103.253906 L 313 173 L 239 173 Z M 239 103.253906 " clip-rule="nonzero"/></clipPath><clipPath id="b496673126"><path d="M 69.855469 145.695312 L 234.660156 145.695312 L 234.660156 280.710938 L 69.855469 280.710938 Z M 69.855469 145.695312 " clip-rule="nonzero"/></clipPath><clipPath id="99028a0731"><path d="M 239 103.253906 L 313 103.253906 L 313 173 L 239 173 Z M 239 103.253906 " clip-rule="nonzero"/></clipPath></defs><rect x="-38.4" width="460.8" fill="#ffffff" y="-38.399999" height="460.799983" fill-opacity="1"/><rect x="-38.4" width="460.8" fill="#1d3557" y="-38.399999" height="460.799983" fill-opacity="1"/><g clip-path="url(#83b5bbc8da)"><path fill="#f1faee" d="M 234.199219 153.628906 L 228.007812 155.742188 L 224.910156 156.800781 C 223.882812 157.167969 222.871094 157.578125 221.847656 157.96875 L 215.734375 160.324219 C 213.710938 161.152344 211.710938 162.039062 209.699219 162.894531 L 206.683594 164.191406 C 205.679688 164.621094 204.703125 165.113281 203.707031 165.574219 L 197.769531 168.378906 C 195.808594 169.359375 193.871094 170.378906 191.921875 171.378906 L 188.996094 172.882812 L 186.121094 174.480469 L 180.375 177.691406 L 174.730469 181.082031 C 172.832031 182.1875 170.988281 183.382812 169.140625 184.574219 C 167.304688 185.777344 165.421875 186.914062 163.613281 188.167969 C 156.296875 193.046875 149.210938 198.285156 142.273438 203.71875 C 128.46875 214.675781 115.425781 226.652344 103.277344 239.5 C 97.207031 245.925781 91.351562 252.570312 85.753906 259.429688 C 80.164062 266.289062 74.761719 273.328125 69.855469 280.710938 C 74.46875 273.136719 79.601562 265.882812 84.9375 258.789062 C 90.28125 251.695312 95.890625 244.800781 101.742188 238.105469 C 113.441406 224.71875 126.101562 212.132812 139.632812 200.511719 C 146.433594 194.742188 153.402344 189.152344 160.640625 183.90625 C 162.425781 182.5625 164.289062 181.328125 166.113281 180.035156 C 167.945312 178.75 169.773438 177.460938 171.660156 176.257812 L 177.277344 172.582031 L 183.007812 169.078125 L 185.878906 167.332031 L 188.804688 165.675781 C 190.757812 164.578125 192.699219 163.457031 194.667969 162.378906 L 200.636719 159.265625 C 201.632812 158.753906 202.617188 158.210938 203.628906 157.726562 L 206.671875 156.277344 C 208.699219 155.320312 210.71875 154.332031 212.765625 153.398438 L 218.957031 150.726562 C 219.992188 150.289062 221.019531 149.824219 222.0625 149.402344 L 225.210938 148.1875 L 231.511719 145.757812 L 234.199219 153.628906 " fill-opacity="1" fill-rule="nonzero"/></g><g clip-path="url(#d990deaca5)"><path fill="#f1faee" d="M 312.808594 121.90625 C 311.449219 118.03125 300.542969 121.4375 300.542969 121.4375 L 286.308594 126.433594 L 278.847656 120.234375 C 280.21875 119.601562 280.710938 119.214844 280.710938 119.214844 L 280.707031 119.203125 C 280.925781 119.035156 280.734375 117.847656 280.253906 116.472656 C 279.769531 115.09375 279.179688 114.050781 278.898438 114.054688 L 278.894531 114.046875 C 278.894531 114.046875 277.429688 114.035156 273.425781 115.4375 C 273.339844 115.46875 273.261719 115.5 273.179688 115.527344 L 259.304688 104.003906 C 258.589844 103.414062 257.621094 103.238281 256.746094 103.546875 L 253.523438 104.675781 C 252.957031 104.875 252.753906 105.566406 253.117188 106.042969 L 272.515625 131.269531 L 263.320312 134.496094 C 261.921875 134.988281 261.378906 135.253906 260.035156 135.886719 C 258.753906 136.488281 257.054688 137.398438 255.253906 138.425781 L 243.675781 129.8125 C 243.207031 129.464844 242.59375 129.371094 242.042969 129.566406 L 240.539062 130.09375 C 240.007812 130.277344 239.789062 130.90625 240.082031 131.382812 L 247.410156 143.316406 C 245.664062 144.539062 244.519531 145.5 244.632812 145.824219 C 244.746094 146.144531 246.253906 146.183594 248.398438 146.042969 L 250.132812 159.957031 C 250.203125 160.515625 250.765625 160.863281 251.296875 160.675781 L 252.800781 160.148438 C 253.351562 159.957031 253.769531 159.5 253.917969 158.9375 L 257.585938 144.960938 C 259.621094 144.636719 261.5 144.285156 262.867188 143.957031 C 264.3125 143.609375 264.902344 143.484375 266.300781 142.992188 L 275.503906 139.761719 L 276.117188 171.609375 C 276.128906 172.207031 276.722656 172.617188 277.289062 172.421875 L 280.511719 171.289062 C 281.386719 170.984375 282.03125 170.242188 282.222656 169.335938 L 285.855469 151.667969 C 285.9375 151.640625 286.019531 151.613281 286.105469 151.582031 C 290.109375 150.175781 291.246094 149.257812 291.246094 149.257812 L 291.242188 149.246094 C 291.464844 149.074219 291.273438 147.890625 290.792969 146.511719 C 290.308594 145.136719 289.714844 144.089844 289.4375 144.09375 L 289.433594 144.082031 C 289.433594 144.082031 288.808594 144.089844 287.339844 144.453125 L 289.300781 134.921875 L 303.523438 129.9375 C 303.523438 129.9375 314.164062 125.777344 312.808594 121.90625 " fill-opacity="1" fill-rule="nonzero"/></g><g clip-path="url(#b496673126)"><path fill="#f1faee" d="M 234.199219 153.628906 L 228.007812 155.742188 L 224.910156 156.800781 C 223.882812 157.167969 222.871094 157.578125 221.847656 157.96875 L 215.734375 160.324219 C 213.710938 161.152344 211.710938 162.039062 209.699219 162.894531 L 206.683594 164.191406 C 205.679688 164.621094 204.703125 165.113281 203.707031 165.574219 L 197.769531 168.378906 C 195.808594 169.359375 193.871094 170.378906 191.921875 171.378906 L 188.996094 172.882812 L 186.121094 174.480469 L 180.375 177.691406 L 174.730469 181.082031 C 172.832031 182.1875 170.988281 183.382812 169.140625 184.574219 C 167.304688 185.777344 165.421875 186.914062 163.613281 188.167969 C 156.296875 193.046875 149.210938 198.285156 142.273438 203.71875 C 128.46875 214.675781 115.425781 226.652344 103.277344 239.5 C 97.207031 245.925781 91.351562 252.570312 85.753906 259.429688 C 80.164062 266.289062 74.761719 273.328125 69.855469 280.710938 C 74.46875 273.136719 79.601562 265.882812 84.9375 258.789062 C 90.28125 251.695312 95.890625 244.800781 101.742188 238.105469 C 113.441406 224.71875 126.101562 212.132812 139.632812 200.511719 C 146.433594 194.742188 153.402344 189.152344 160.640625 183.90625 C 162.425781 182.5625 164.289062 181.328125 166.113281 180.035156 C 167.945312 178.75 169.773438 177.460938 171.660156 176.257812 L 177.277344 172.582031 L 183.007812 169.078125 L 185.878906 167.332031 L 188.804688 165.675781 C 190.757812 164.578125 192.699219 163.457031 194.667969 162.378906 L 200.636719 159.265625 C 201.632812 158.753906 202.617188 158.210938 203.628906 157.726562 L 206.671875 156.277344 C 208.699219 155.320312 210.71875 154.332031 212.765625 153.398438 L 218.957031 150.726562 C 219.992188 150.289062 221.019531 149.824219 222.0625 149.402344 L 225.210938 148.1875 L 231.511719 145.757812 L 234.199219 153.628906 " fill-opacity="1" fill-rule="nonzero"/></g><g clip-path="url(#99028a0731)"><path fill="#f1faee" d="M 312.808594 121.90625 C 311.449219 118.03125 300.542969 121.4375 300.542969 121.4375 L 286.308594 126.433594 L 278.847656 120.234375 C 280.21875 119.601562 280.710938 119.214844 280.710938 119.214844 L 280.707031 119.203125 C 280.925781 119.035156 280.734375 117.847656 280.253906 116.472656 C 279.769531 115.09375 279.179688 114.050781 278.898438 114.054688 L 278.894531 114.046875 C 278.894531 114.046875 277.429688 114.035156 273.425781 115.4375 C 273.339844 115.46875 273.261719 115.5 273.179688 115.527344 L 259.304688 104.003906 C 258.589844 103.414062 257.621094 103.238281 256.746094 103.546875 L 253.523438 104.675781 C 252.957031 104.875 252.753906 105.566406 253.117188 106.042969 L 272.515625 131.269531 L 263.320312 134.496094 C 261.921875 134.988281 261.378906 135.253906 260.035156 135.886719 C 258.753906 136.488281 257.054688 137.398438 255.253906 138.425781 L 243.675781 129.8125 C 243.207031 129.464844 242.59375 129.371094 242.042969 129.566406 L 240.539062 130.09375 C 240.007812 130.277344 239.789062 130.90625 240.082031 131.382812 L 247.410156 143.316406 C 245.664062 144.539062 244.519531 145.5 244.632812 145.824219 C 244.746094 146.144531 246.253906 146.183594 248.398438 146.042969 L 250.132812 159.957031 C 250.203125 160.515625 250.765625 160.863281 251.296875 160.675781 L 252.800781 160.148438 C 253.351562 159.957031 253.769531 159.5 253.917969 158.9375 L 257.585938 144.960938 C 259.621094 144.636719 261.5 144.285156 262.867188 143.957031 C 264.3125 143.609375 264.902344 143.484375 266.300781 142.992188 L 275.503906 139.761719 L 276.117188 171.609375 C 276.128906 172.207031 276.722656 172.617188 277.289062 172.421875 L 280.511719 171.289062 C 281.386719 170.984375 282.03125 170.242188 282.222656 169.335938 L 285.855469 151.667969 C 285.9375 151.640625 286.019531 151.613281 286.105469 151.582031 C 290.109375 150.175781 291.246094 149.257812 291.246094 149.257812 L 291.242188 149.246094 C 291.464844 149.074219 291.273438 147.890625 290.792969 146.511719 C 290.308594 145.136719 289.714844 144.089844 289.4375 144.09375 L 289.433594 144.082031 C 289.433594 144.082031 288.808594 144.089844 287.339844 144.453125 L 289.300781 134.921875 L 303.523438 129.9375 C 303.523438 129.9375 314.164062 125.777344 312.808594 121.90625 " fill-opacity="1" fill-rule="nonzero"/></g></svg>